<mxfile host="app.diagrams.net" agent="Mozilla/5.0 (Windows NT 10.0; Win64; x64) AppleWebKit/537.36 (KHTML, like Gecko) Chrome/131.0.0.0 Safari/537.36" version="25.0.3">
  <diagram name="Page-1" id="YesxqjGPLxrpe0U_23uJ">
    <mxGraphModel dx="2049" dy="1066" grid="1" gridSize="10" guides="1" tooltips="1" connect="1" arrows="1" fold="1" page="1" pageScale="1" pageWidth="850" pageHeight="1100" math="0" shadow="0">
      <root>
        <mxCell id="0" />
        <mxCell id="1" parent="0" />
        <mxCell id="UtOyPTaljL9DKkutyo-S-10" style="edgeStyle=orthogonalEdgeStyle;rounded=0;orthogonalLoop=1;jettySize=auto;html=1;entryX=0.5;entryY=0;entryDx=0;entryDy=0;" edge="1" parent="1" source="UtOyPTaljL9DKkutyo-S-1" target="UtOyPTaljL9DKkutyo-S-5">
          <mxGeometry relative="1" as="geometry" />
        </mxCell>
        <mxCell id="UtOyPTaljL9DKkutyo-S-1" value="&lt;font style=&quot;font-size: 24px;&quot;&gt;start&lt;/font&gt;" style="strokeWidth=2;html=1;shape=mxgraph.flowchart.start_1;whiteSpace=wrap;" vertex="1" parent="1">
          <mxGeometry x="375" y="40" width="100" height="60" as="geometry" />
        </mxCell>
        <mxCell id="UtOyPTaljL9DKkutyo-S-2" value="&lt;font style=&quot;font-size: 24px;&quot;&gt;end&lt;/font&gt;" style="strokeWidth=2;html=1;shape=mxgraph.flowchart.start_1;whiteSpace=wrap;" vertex="1" parent="1">
          <mxGeometry x="630" y="980" width="100" height="60" as="geometry" />
        </mxCell>
        <mxCell id="UtOyPTaljL9DKkutyo-S-12" style="edgeStyle=orthogonalEdgeStyle;rounded=0;orthogonalLoop=1;jettySize=auto;html=1;entryX=0.5;entryY=0;entryDx=0;entryDy=0;" edge="1" parent="1" source="UtOyPTaljL9DKkutyo-S-3" target="UtOyPTaljL9DKkutyo-S-7">
          <mxGeometry relative="1" as="geometry" />
        </mxCell>
        <mxCell id="UtOyPTaljL9DKkutyo-S-3" value="input n" style="shape=parallelogram;perimeter=parallelogramPerimeter;whiteSpace=wrap;html=1;fixedSize=1;" vertex="1" parent="1">
          <mxGeometry x="520" y="230" width="132" height="30" as="geometry" />
        </mxCell>
        <mxCell id="UtOyPTaljL9DKkutyo-S-11" style="edgeStyle=orthogonalEdgeStyle;rounded=0;orthogonalLoop=1;jettySize=auto;html=1;entryX=0.5;entryY=0;entryDx=0;entryDy=0;" edge="1" parent="1" source="UtOyPTaljL9DKkutyo-S-5" target="UtOyPTaljL9DKkutyo-S-3">
          <mxGeometry relative="1" as="geometry" />
        </mxCell>
        <mxCell id="UtOyPTaljL9DKkutyo-S-18" style="edgeStyle=orthogonalEdgeStyle;rounded=0;orthogonalLoop=1;jettySize=auto;html=1;entryX=0.5;entryY=0;entryDx=0;entryDy=0;" edge="1" parent="1" source="UtOyPTaljL9DKkutyo-S-5" target="UtOyPTaljL9DKkutyo-S-17">
          <mxGeometry relative="1" as="geometry" />
        </mxCell>
        <mxCell id="UtOyPTaljL9DKkutyo-S-5" value="while 1" style="rhombus;whiteSpace=wrap;html=1;" vertex="1" parent="1">
          <mxGeometry x="354" y="160" width="142" height="70" as="geometry" />
        </mxCell>
        <mxCell id="UtOyPTaljL9DKkutyo-S-13" style="edgeStyle=orthogonalEdgeStyle;rounded=0;orthogonalLoop=1;jettySize=auto;html=1;entryX=0.5;entryY=0;entryDx=0;entryDy=0;" edge="1" parent="1" source="UtOyPTaljL9DKkutyo-S-7" target="UtOyPTaljL9DKkutyo-S-8">
          <mxGeometry relative="1" as="geometry" />
        </mxCell>
        <mxCell id="UtOyPTaljL9DKkutyo-S-7" value="if input == -1" style="rhombus;whiteSpace=wrap;html=1;" vertex="1" parent="1">
          <mxGeometry x="515" y="300" width="142" height="70" as="geometry" />
        </mxCell>
        <mxCell id="UtOyPTaljL9DKkutyo-S-14" style="edgeStyle=orthogonalEdgeStyle;rounded=0;orthogonalLoop=1;jettySize=auto;html=1;entryX=0.5;entryY=0;entryDx=0;entryDy=0;" edge="1" parent="1" source="UtOyPTaljL9DKkutyo-S-8" target="UtOyPTaljL9DKkutyo-S-9">
          <mxGeometry relative="1" as="geometry" />
        </mxCell>
        <mxCell id="UtOyPTaljL9DKkutyo-S-8" value="array[i] = input" style="rounded=1;whiteSpace=wrap;html=1;absoluteArcSize=1;arcSize=14;strokeWidth=2;" vertex="1" parent="1">
          <mxGeometry x="531" y="410" width="110" height="40" as="geometry" />
        </mxCell>
        <mxCell id="UtOyPTaljL9DKkutyo-S-15" style="edgeStyle=orthogonalEdgeStyle;rounded=0;orthogonalLoop=1;jettySize=auto;html=1;entryX=1;entryY=1;entryDx=0;entryDy=0;" edge="1" parent="1" source="UtOyPTaljL9DKkutyo-S-9" target="UtOyPTaljL9DKkutyo-S-5">
          <mxGeometry relative="1" as="geometry" />
        </mxCell>
        <mxCell id="UtOyPTaljL9DKkutyo-S-9" value="i++" style="rounded=1;whiteSpace=wrap;html=1;absoluteArcSize=1;arcSize=14;strokeWidth=2;" vertex="1" parent="1">
          <mxGeometry x="531" y="500" width="110" height="40" as="geometry" />
        </mxCell>
        <mxCell id="UtOyPTaljL9DKkutyo-S-16" style="edgeStyle=orthogonalEdgeStyle;rounded=0;orthogonalLoop=1;jettySize=auto;html=1;entryX=0.5;entryY=0;entryDx=0;entryDy=0;entryPerimeter=0;" edge="1" parent="1" source="UtOyPTaljL9DKkutyo-S-7" target="UtOyPTaljL9DKkutyo-S-2">
          <mxGeometry relative="1" as="geometry">
            <Array as="points">
              <mxPoint x="680" y="335" />
            </Array>
          </mxGeometry>
        </mxCell>
        <mxCell id="UtOyPTaljL9DKkutyo-S-20" style="edgeStyle=orthogonalEdgeStyle;rounded=0;orthogonalLoop=1;jettySize=auto;html=1;entryX=0.5;entryY=0;entryDx=0;entryDy=0;" edge="1" parent="1" source="UtOyPTaljL9DKkutyo-S-17" target="UtOyPTaljL9DKkutyo-S-19">
          <mxGeometry relative="1" as="geometry" />
        </mxCell>
        <mxCell id="UtOyPTaljL9DKkutyo-S-26" style="edgeStyle=orthogonalEdgeStyle;rounded=0;orthogonalLoop=1;jettySize=auto;html=1;entryX=0.5;entryY=0;entryDx=0;entryDy=0;" edge="1" parent="1" source="UtOyPTaljL9DKkutyo-S-17" target="UtOyPTaljL9DKkutyo-S-22">
          <mxGeometry relative="1" as="geometry" />
        </mxCell>
        <mxCell id="UtOyPTaljL9DKkutyo-S-17" value="for ( j &amp;lt; i, j++ )" style="rhombus;whiteSpace=wrap;html=1;" vertex="1" parent="1">
          <mxGeometry x="354" y="560" width="142" height="70" as="geometry" />
        </mxCell>
        <mxCell id="UtOyPTaljL9DKkutyo-S-21" style="edgeStyle=orthogonalEdgeStyle;rounded=0;orthogonalLoop=1;jettySize=auto;html=1;entryX=1;entryY=1;entryDx=0;entryDy=0;" edge="1" parent="1" source="UtOyPTaljL9DKkutyo-S-19" target="UtOyPTaljL9DKkutyo-S-17">
          <mxGeometry relative="1" as="geometry" />
        </mxCell>
        <mxCell id="UtOyPTaljL9DKkutyo-S-19" value="output j" style="shape=parallelogram;perimeter=parallelogramPerimeter;whiteSpace=wrap;html=1;fixedSize=1;" vertex="1" parent="1">
          <mxGeometry x="498" y="660" width="132" height="30" as="geometry" />
        </mxCell>
        <mxCell id="UtOyPTaljL9DKkutyo-S-24" style="edgeStyle=orthogonalEdgeStyle;rounded=0;orthogonalLoop=1;jettySize=auto;html=1;entryX=0.5;entryY=0;entryDx=0;entryDy=0;" edge="1" parent="1" source="UtOyPTaljL9DKkutyo-S-22" target="UtOyPTaljL9DKkutyo-S-23">
          <mxGeometry relative="1" as="geometry" />
        </mxCell>
        <mxCell id="UtOyPTaljL9DKkutyo-S-22" value="for ( j &amp;lt; i, j++ )" style="rhombus;whiteSpace=wrap;html=1;" vertex="1" parent="1">
          <mxGeometry x="354" y="740" width="142" height="70" as="geometry" />
        </mxCell>
        <mxCell id="UtOyPTaljL9DKkutyo-S-25" style="edgeStyle=orthogonalEdgeStyle;rounded=0;orthogonalLoop=1;jettySize=auto;html=1;entryX=1;entryY=1;entryDx=0;entryDy=0;" edge="1" parent="1" source="UtOyPTaljL9DKkutyo-S-23" target="UtOyPTaljL9DKkutyo-S-22">
          <mxGeometry relative="1" as="geometry" />
        </mxCell>
        <mxCell id="UtOyPTaljL9DKkutyo-S-23" value="output array[j]" style="shape=parallelogram;perimeter=parallelogramPerimeter;whiteSpace=wrap;html=1;fixedSize=1;" vertex="1" parent="1">
          <mxGeometry x="498" y="820" width="132" height="30" as="geometry" />
        </mxCell>
        <mxCell id="UtOyPTaljL9DKkutyo-S-27" style="edgeStyle=orthogonalEdgeStyle;rounded=0;orthogonalLoop=1;jettySize=auto;html=1;entryX=0;entryY=0.5;entryDx=0;entryDy=0;entryPerimeter=0;" edge="1" parent="1" source="UtOyPTaljL9DKkutyo-S-22" target="UtOyPTaljL9DKkutyo-S-2">
          <mxGeometry relative="1" as="geometry">
            <Array as="points">
              <mxPoint x="425" y="1010" />
            </Array>
          </mxGeometry>
        </mxCell>
      </root>
    </mxGraphModel>
  </diagram>
</mxfile>
